<?xml version="1.0" standalone="no"?>
<!DOCTYPE svg PUBLIC "-//W3C//DTD SVG 20010904//EN"
 "http://www.w3.org/TR/2001/REC-SVG-20010904/DTD/svg10.dtd">
<svg version="1.0" xmlns="http://www.w3.org/2000/svg"
 width="200.000000pt" height="200.000000pt" viewBox="0 0 200.000000 200.000000"
 preserveAspectRatio="xMidYMid meet">
<metadata>
Created by potrace 1.15, written by Peter Selinger 2001-2017
</metadata>
<g transform="translate(0.000000,200.000000) scale(0.100000,-0.100000)"
fill="#000000" stroke="none">
<path d="M788 1532 c-108 -70 -200 -135 -203 -145 -7 -20 10 -47 30 -47 7 0
96 54 199 120 l187 120 185 -121 c194 -125 226 -138 232 -89 2 22 -19 39 -202
158 -113 72 -211 132 -218 131 -7 0 -102 -57 -210 -127z"/>
<path d="M1110 993 c-24 -9 -40 -35 -40 -65 0 -18 -5 -28 -15 -28 -9 0 -15 -9
-15 -25 0 -16 6 -25 15 -25 13 0 15 -22 15 -135 l0 -135 30 0 30 0 0 135 0
135 25 0 c20 0 25 5 25 25 0 20 -5 25 -26 25 -20 0 -25 4 -20 16 3 9 6 18 6
20 0 2 9 4 21 4 16 0 20 5 17 28 -2 21 -9 27 -28 29 -14 1 -32 -1 -40 -4z"/>
<path d="M1640 942 l0 -48 -33 4 c-24 3 -38 -2 -52 -18 -18 -19 -20 -37 -20
-140 0 -150 5 -158 106 -158 l69 1 0 203 0 204 -35 0 -35 0 0 -48z"/>
<path d="M930 935 c0 -24 -5 -35 -15 -35 -9 0 -15 -9 -15 -25 0 -14 5 -25 10
-25 6 0 10 -44 10 -113 0 -131 10 -157 64 -157 36 0 56 15 56 43 0 14 -5 17
-19 12 -30 -9 -41 23 -41 124 0 90 0 91 25 91 20 0 25 5 25 25 0 20 -5 25 -25
25 -22 0 -25 4 -25 35 0 31 -3 35 -25 35 -22 0 -25 -4 -25 -35z"/>
<path d="M125 875 c-16 -15 -25 -36 -25 -55 0 -27 3 -30 29 -30 25 0 30 4 33
28 5 42 32 35 36 -10 3 -29 -1 -38 -18 -43 -11 -3 -34 -18 -50 -32 -26 -21
-30 -32 -30 -72 0 -66 17 -79 103 -79 l67 1 0 128 c0 73 -5 139 -11 153 -20
43 -96 50 -134 11z"/>
<path d="M320 690 l0 -210 30 0 c30 0 30 1 30 53 l0 53 39 -4 c61 -6 71 17 71
160 0 105 -2 120 -20 138 -22 22 -51 26 -81 10 -13 -7 -19 -7 -19 0 0 5 -11
10 -25 10 l-25 0 0 -210z"/>
<path d="M557 889 c-23 -13 -39 -56 -32 -80 9 -26 55 -26 55 0 0 10 7 24 16
32 13 10 17 10 25 -2 20 -32 10 -58 -30 -79 -50 -25 -71 -55 -71 -100 0 -66
47 -99 101 -70 13 7 19 7 19 0 0 -5 11 -10 25 -10 l25 0 0 140 c0 127 -2 142
-20 160 -22 22 -82 27 -113 9z"/>
<path d="M740 740 l0 -160 30 0 30 0 0 119 c0 66 3 126 6 135 10 26 24 18 24
-14 0 -25 4 -30 24 -30 29 0 41 26 31 70 -8 34 -46 50 -77 31 -11 -7 -18 -7
-18 -1 0 5 -11 10 -25 10 l-25 0 0 -160z"/>
<path d="M1200 740 l0 -160 30 0 30 0 0 160 0 160 -30 0 -30 0 0 -160z"/>
<path d="M1310 740 l0 -160 35 0 35 0 0 129 c0 101 3 130 14 134 8 3 17 3 20
0 3 -4 6 -64 6 -135 l0 -128 35 0 35 0 0 138 c0 108 -3 142 -16 160 -16 24
-53 29 -85 12 -13 -7 -19 -7 -19 0 0 5 -13 10 -30 10 l-30 0 0 -160z"/>
<path d="M1760 740 l0 -160 30 0 29 0 3 133 c2 81 7 131 13 130 6 -1 11 -14
13 -28 3 -19 9 -25 28 -25 22 0 24 4 24 43 0 24 -5 48 -12 55 -15 15 -51 15
-66 0 -9 -9 -12 -9 -12 0 0 7 -11 12 -25 12 l-25 0 0 -160z"/>
</g>
</svg>
